<mxfile host="app.diagrams.net" agent="Mozilla/5.0 (Windows NT 10.0; Win64; x64) AppleWebKit/537.36 (KHTML, like Gecko) Chrome/136.0.0.0 Safari/537.36" version="27.0.6">
  <diagram name="Pagina-1" id="PaOSsx_U7D0CfI69xbXE">
    <mxGraphModel grid="1" page="1" gridSize="10" guides="1" tooltips="1" connect="1" arrows="1" fold="1" pageScale="1" pageWidth="827" pageHeight="1169" math="0" shadow="0">
      <root>
        <mxCell id="0" />
        <mxCell id="1" parent="0" />
        <mxCell id="9foeUpmNPGsQy17WNi8c-1" value="Corso" style="swimlane;fontStyle=1;align=center;verticalAlign=top;childLayout=stackLayout;horizontal=1;startSize=26;horizontalStack=0;resizeParent=1;resizeParentMax=0;resizeLast=0;collapsible=1;marginBottom=0;whiteSpace=wrap;html=1;" vertex="1" parent="1">
          <mxGeometry x="120" y="110" width="160" height="130" as="geometry">
            <mxRectangle x="120" y="110" width="70" height="30" as="alternateBounds" />
          </mxGeometry>
        </mxCell>
        <mxCell id="9foeUpmNPGsQy17WNi8c-2" value="-codice: String&lt;div&gt;- nome: String&lt;/div&gt;&lt;div&gt;- durata: int&lt;/div&gt;" style="text;strokeColor=none;fillColor=none;align=left;verticalAlign=top;spacingLeft=4;spacingRight=4;overflow=hidden;rotatable=0;points=[[0,0.5],[1,0.5]];portConstraint=eastwest;whiteSpace=wrap;html=1;" vertex="1" parent="9foeUpmNPGsQy17WNi8c-1">
          <mxGeometry y="26" width="160" height="64" as="geometry" />
        </mxCell>
        <mxCell id="9foeUpmNPGsQy17WNi8c-3" value="" style="line;strokeWidth=1;fillColor=none;align=left;verticalAlign=middle;spacingTop=-1;spacingLeft=3;spacingRight=3;rotatable=0;labelPosition=right;points=[];portConstraint=eastwest;strokeColor=inherit;" vertex="1" parent="9foeUpmNPGsQy17WNi8c-1">
          <mxGeometry y="90" width="160" height="8" as="geometry" />
        </mxCell>
        <mxCell id="9foeUpmNPGsQy17WNi8c-4" value="+ getDiscipline(): List" style="text;strokeColor=none;fillColor=none;align=left;verticalAlign=top;spacingLeft=4;spacingRight=4;overflow=hidden;rotatable=0;points=[[0,0.5],[1,0.5]];portConstraint=eastwest;whiteSpace=wrap;html=1;" vertex="1" parent="9foeUpmNPGsQy17WNi8c-1">
          <mxGeometry y="98" width="160" height="32" as="geometry" />
        </mxCell>
        <mxCell id="9foeUpmNPGsQy17WNi8c-5" value="Disciplina" style="swimlane;fontStyle=1;align=center;verticalAlign=top;childLayout=stackLayout;horizontal=1;startSize=26;horizontalStack=0;resizeParent=1;resizeParentMax=0;resizeLast=0;collapsible=1;marginBottom=0;whiteSpace=wrap;html=1;" vertex="1" parent="1">
          <mxGeometry x="480" y="100" width="160" height="130" as="geometry" />
        </mxCell>
        <mxCell id="9foeUpmNPGsQy17WNi8c-6" value="-codice: String&lt;div&gt;- nome: String&lt;/div&gt;&lt;div&gt;- cfu: int&lt;/div&gt;&lt;div&gt;- corso: corso&lt;/div&gt;" style="text;strokeColor=none;fillColor=none;align=left;verticalAlign=top;spacingLeft=4;spacingRight=4;overflow=hidden;rotatable=0;points=[[0,0.5],[1,0.5]];portConstraint=eastwest;whiteSpace=wrap;html=1;" vertex="1" parent="9foeUpmNPGsQy17WNi8c-5">
          <mxGeometry y="26" width="160" height="64" as="geometry" />
        </mxCell>
        <mxCell id="9foeUpmNPGsQy17WNi8c-7" value="" style="line;strokeWidth=1;fillColor=none;align=left;verticalAlign=middle;spacingTop=-1;spacingLeft=3;spacingRight=3;rotatable=0;labelPosition=right;points=[];portConstraint=eastwest;strokeColor=inherit;" vertex="1" parent="9foeUpmNPGsQy17WNi8c-5">
          <mxGeometry y="90" width="160" height="8" as="geometry" />
        </mxCell>
        <mxCell id="9foeUpmNPGsQy17WNi8c-8" value="+ getDocente(): Docente" style="text;strokeColor=none;fillColor=none;align=left;verticalAlign=top;spacingLeft=4;spacingRight=4;overflow=hidden;rotatable=0;points=[[0,0.5],[1,0.5]];portConstraint=eastwest;whiteSpace=wrap;html=1;" vertex="1" parent="9foeUpmNPGsQy17WNi8c-5">
          <mxGeometry y="98" width="160" height="32" as="geometry" />
        </mxCell>
        <mxCell id="9foeUpmNPGsQy17WNi8c-9" value="Docente" style="swimlane;fontStyle=1;align=center;verticalAlign=top;childLayout=stackLayout;horizontal=1;startSize=26;horizontalStack=0;resizeParent=1;resizeParentMax=0;resizeLast=0;collapsible=1;marginBottom=0;whiteSpace=wrap;html=1;" vertex="1" parent="1">
          <mxGeometry x="100" y="320" width="160" height="90" as="geometry" />
        </mxCell>
        <mxCell id="9foeUpmNPGsQy17WNi8c-10" value="- matricola: String&lt;div&gt;- nome: String&lt;/div&gt;&lt;div&gt;- cognome: String&lt;/div&gt;&lt;div&gt;- disciplina: Disciplina&lt;/div&gt;" style="text;strokeColor=none;fillColor=none;align=left;verticalAlign=top;spacingLeft=4;spacingRight=4;overflow=hidden;rotatable=0;points=[[0,0.5],[1,0.5]];portConstraint=eastwest;whiteSpace=wrap;html=1;" vertex="1" parent="9foeUpmNPGsQy17WNi8c-9">
          <mxGeometry y="26" width="160" height="64" as="geometry" />
        </mxCell>
        <mxCell id="9foeUpmNPGsQy17WNi8c-13" value="Studente" style="swimlane;fontStyle=1;align=center;verticalAlign=top;childLayout=stackLayout;horizontal=1;startSize=26;horizontalStack=0;resizeParent=1;resizeParentMax=0;resizeLast=0;collapsible=1;marginBottom=0;whiteSpace=wrap;html=1;" vertex="1" parent="1">
          <mxGeometry x="600" y="460" width="160" height="110" as="geometry" />
        </mxCell>
        <mxCell id="9foeUpmNPGsQy17WNi8c-14" value="- matricola: String&lt;div&gt;- nome: String&lt;/div&gt;&lt;div&gt;- cognome: String&lt;/div&gt;&lt;div&gt;- corso: Corso&lt;/div&gt;&lt;div&gt;-appelliiscritti: List&lt;/div&gt;" style="text;strokeColor=none;fillColor=none;align=left;verticalAlign=top;spacingLeft=4;spacingRight=4;overflow=hidden;rotatable=0;points=[[0,0.5],[1,0.5]];portConstraint=eastwest;whiteSpace=wrap;html=1;" vertex="1" parent="9foeUpmNPGsQy17WNi8c-13">
          <mxGeometry y="26" width="160" height="84" as="geometry" />
        </mxCell>
        <mxCell id="9foeUpmNPGsQy17WNi8c-15" value="Appello" style="swimlane;fontStyle=1;align=center;verticalAlign=top;childLayout=stackLayout;horizontal=1;startSize=26;horizontalStack=0;resizeParent=1;resizeParentMax=0;resizeLast=0;collapsible=1;marginBottom=0;whiteSpace=wrap;html=1;" vertex="1" parent="1">
          <mxGeometry x="260" y="470" width="160" height="90" as="geometry" />
        </mxCell>
        <mxCell id="9foeUpmNPGsQy17WNi8c-16" value="- dataEsame: LocalDate&lt;div&gt;- iscritti: List&lt;/div&gt;&lt;div&gt;- docente: Docente&lt;/div&gt;&lt;div&gt;- disciplina: Disciplina&lt;/div&gt;" style="text;strokeColor=none;fillColor=none;align=left;verticalAlign=top;spacingLeft=4;spacingRight=4;overflow=hidden;rotatable=0;points=[[0,0.5],[1,0.5]];portConstraint=eastwest;whiteSpace=wrap;html=1;" vertex="1" parent="9foeUpmNPGsQy17WNi8c-15">
          <mxGeometry y="26" width="160" height="64" as="geometry" />
        </mxCell>
        <mxCell id="9foeUpmNPGsQy17WNi8c-18" value="*" style="text;html=1;align=center;verticalAlign=middle;resizable=0;points=[];autosize=1;strokeColor=none;fillColor=none;fontSize=16;" vertex="1" parent="1">
          <mxGeometry x="450" y="155" width="30" height="30" as="geometry" />
        </mxCell>
        <mxCell id="9foeUpmNPGsQy17WNi8c-19" value="1" style="text;html=1;align=center;verticalAlign=middle;resizable=0;points=[];autosize=1;strokeColor=none;fillColor=none;fontSize=16;" vertex="1" parent="1">
          <mxGeometry x="280" y="150" width="30" height="30" as="geometry" />
        </mxCell>
        <mxCell id="tXU84dpcsyv2HIxhmBIH-4" value="1" style="endArrow=open;html=1;endSize=12;startArrow=diamondThin;startSize=14;startFill=1;edgeStyle=orthogonalEdgeStyle;align=left;verticalAlign=bottom;rounded=0;fontSize=12;curved=1;entryX=0.981;entryY=0.781;entryDx=0;entryDy=0;entryPerimeter=0;" edge="1" parent="1" target="9foeUpmNPGsQy17WNi8c-2">
          <mxGeometry x="-1" y="3" relative="1" as="geometry">
            <mxPoint x="480" y="185" as="sourcePoint" />
            <mxPoint x="320" y="185" as="targetPoint" />
          </mxGeometry>
        </mxCell>
        <mxCell id="tXU84dpcsyv2HIxhmBIH-6" value="N" style="text;html=1;align=center;verticalAlign=middle;resizable=0;points=[];autosize=1;strokeColor=none;fillColor=none;fontSize=16;" vertex="1" parent="1">
          <mxGeometry x="255" y="370" width="40" height="30" as="geometry" />
        </mxCell>
        <mxCell id="tXU84dpcsyv2HIxhmBIH-7" value="" style="line;strokeWidth=1;fillColor=none;align=left;verticalAlign=middle;spacingTop=-1;spacingLeft=3;spacingRight=3;rotatable=0;labelPosition=right;points=[];portConstraint=eastwest;strokeColor=inherit;direction=south;" vertex="1" parent="1">
          <mxGeometry x="176" y="240" width="8" height="80" as="geometry" />
        </mxCell>
        <mxCell id="tXU84dpcsyv2HIxhmBIH-8" value="1" style="text;html=1;align=center;verticalAlign=middle;resizable=0;points=[];autosize=1;strokeColor=none;fillColor=none;fontSize=16;" vertex="1" parent="1">
          <mxGeometry x="176" y="290" width="30" height="30" as="geometry" />
        </mxCell>
        <mxCell id="tXU84dpcsyv2HIxhmBIH-9" value="N" style="text;html=1;align=center;verticalAlign=middle;resizable=0;points=[];autosize=1;strokeColor=none;fillColor=none;fontSize=16;" vertex="1" parent="1">
          <mxGeometry x="171" y="240" width="40" height="30" as="geometry" />
        </mxCell>
        <mxCell id="xM4kzPgvV0_zC6Zl-l6N-1" value="" style="line;strokeWidth=1;fillColor=none;align=left;verticalAlign=middle;spacingTop=-1;spacingLeft=3;spacingRight=3;rotatable=0;labelPosition=right;points=[];portConstraint=eastwest;strokeColor=inherit;" vertex="1" parent="1">
          <mxGeometry x="420" y="511" width="180" height="8" as="geometry" />
        </mxCell>
        <mxCell id="xM4kzPgvV0_zC6Zl-l6N-2" value="N" style="text;html=1;align=center;verticalAlign=middle;resizable=0;points=[];autosize=1;strokeColor=none;fillColor=none;" vertex="1" parent="1">
          <mxGeometry x="420" y="489" width="30" height="30" as="geometry" />
        </mxCell>
        <mxCell id="xM4kzPgvV0_zC6Zl-l6N-3" value="N" style="text;html=1;align=center;verticalAlign=middle;resizable=0;points=[];autosize=1;strokeColor=none;fillColor=none;" vertex="1" parent="1">
          <mxGeometry x="575" y="488" width="30" height="30" as="geometry" />
        </mxCell>
        <mxCell id="xM4kzPgvV0_zC6Zl-l6N-5" value="" style="endArrow=none;html=1;edgeStyle=orthogonalEdgeStyle;rounded=0;entryX=0.5;entryY=0;entryDx=0;entryDy=0;exitX=0.5;exitY=0;exitDx=0;exitDy=0;" edge="1" parent="1" source="9foeUpmNPGsQy17WNi8c-1" target="9foeUpmNPGsQy17WNi8c-13">
          <mxGeometry relative="1" as="geometry">
            <mxPoint x="200" y="50" as="sourcePoint" />
            <mxPoint x="545" y="400" as="targetPoint" />
            <Array as="points">
              <mxPoint x="200" y="50" />
              <mxPoint x="680" y="50" />
            </Array>
          </mxGeometry>
        </mxCell>
        <mxCell id="xM4kzPgvV0_zC6Zl-l6N-8" value="N" style="text;html=1;align=center;verticalAlign=middle;resizable=0;points=[];autosize=1;strokeColor=none;fillColor=none;" vertex="1" parent="1">
          <mxGeometry x="680" y="438" width="30" height="30" as="geometry" />
        </mxCell>
        <mxCell id="xM4kzPgvV0_zC6Zl-l6N-9" value="&lt;span style=&quot;white-space: pre;&quot;&gt;&#x9;&lt;/span&gt;N" style="text;html=1;align=center;verticalAlign=middle;resizable=0;points=[];autosize=1;strokeColor=none;fillColor=none;" vertex="1" parent="1">
          <mxGeometry x="170" y="88" width="60" height="30" as="geometry" />
        </mxCell>
        <mxCell id="xM4kzPgvV0_zC6Zl-l6N-10" value="" style="endArrow=open;html=1;rounded=0;align=center;verticalAlign=bottom;dashed=1;endFill=0;labelBackgroundColor=none;entryX=0.506;entryY=0.938;entryDx=0;entryDy=0;entryPerimeter=0;exitX=0;exitY=0;exitDx=0;exitDy=0;exitPerimeter=0;" edge="1" parent="1" source="xM4kzPgvV0_zC6Zl-l6N-2" target="9foeUpmNPGsQy17WNi8c-8">
          <mxGeometry relative="1" as="geometry">
            <mxPoint x="554" y="410" as="sourcePoint" />
            <mxPoint x="545" y="390" as="targetPoint" />
            <Array as="points">
              <mxPoint x="560" y="490" />
            </Array>
          </mxGeometry>
        </mxCell>
        <mxCell id="xM4kzPgvV0_zC6Zl-l6N-11" value="" style="resizable=0;html=1;align=center;verticalAlign=top;labelBackgroundColor=none;" connectable="0" vertex="1" parent="xM4kzPgvV0_zC6Zl-l6N-10">
          <mxGeometry relative="1" as="geometry" />
        </mxCell>
        <mxCell id="bQ20gCtlzjGHFr4VxaDy-1" value="" style="endArrow=none;html=1;rounded=0;exitX=0.993;exitY=0.759;exitDx=0;exitDy=0;exitPerimeter=0;entryX=0.308;entryY=0.994;entryDx=0;entryDy=0;entryPerimeter=0;" edge="1" parent="1" source="9foeUpmNPGsQy17WNi8c-10" target="9foeUpmNPGsQy17WNi8c-8">
          <mxGeometry width="50" height="50" relative="1" as="geometry">
            <mxPoint x="390" y="320" as="sourcePoint" />
            <mxPoint x="440" y="270" as="targetPoint" />
            <Array as="points">
              <mxPoint x="530" y="395" />
            </Array>
          </mxGeometry>
        </mxCell>
        <mxCell id="bQ20gCtlzjGHFr4VxaDy-2" value="1" style="text;html=1;align=center;verticalAlign=middle;resizable=0;points=[];autosize=1;strokeColor=none;fillColor=none;" vertex="1" parent="1">
          <mxGeometry x="505" y="230" width="30" height="30" as="geometry" />
        </mxCell>
        <mxCell id="kp1QoJHbh3KsYP77GQn0-1" value="Iscrizione" style="swimlane;fontStyle=1;align=center;verticalAlign=top;childLayout=stackLayout;horizontal=1;startSize=26;horizontalStack=0;resizeParent=1;resizeParentMax=0;resizeLast=0;collapsible=1;marginBottom=0;whiteSpace=wrap;html=1;" vertex="1" parent="1">
          <mxGeometry x="24" y="460" width="160" height="90" as="geometry" />
        </mxCell>
        <mxCell id="kp1QoJHbh3KsYP77GQn0-2" value="- matricola: String&lt;div&gt;- idAppello: String&lt;/div&gt;&lt;div&gt;&lt;br&gt;&lt;/div&gt;" style="text;strokeColor=none;fillColor=none;align=left;verticalAlign=top;spacingLeft=4;spacingRight=4;overflow=hidden;rotatable=0;points=[[0,0.5],[1,0.5]];portConstraint=eastwest;whiteSpace=wrap;html=1;" vertex="1" parent="kp1QoJHbh3KsYP77GQn0-1">
          <mxGeometry y="26" width="160" height="64" as="geometry" />
        </mxCell>
        <mxCell id="kp1QoJHbh3KsYP77GQn0-3" value="" style="endArrow=none;html=1;rounded=0;entryX=-0.007;entryY=0.241;entryDx=0;entryDy=0;entryPerimeter=0;" edge="1" parent="1" target="9foeUpmNPGsQy17WNi8c-16">
          <mxGeometry width="50" height="50" relative="1" as="geometry">
            <mxPoint x="184" y="511" as="sourcePoint" />
            <mxPoint x="234" y="461" as="targetPoint" />
          </mxGeometry>
        </mxCell>
        <mxCell id="kp1QoJHbh3KsYP77GQn0-4" value="N" style="text;html=1;align=center;verticalAlign=middle;resizable=0;points=[];autosize=1;strokeColor=none;fillColor=none;" vertex="1" parent="1">
          <mxGeometry x="176" y="488" width="30" height="30" as="geometry" />
        </mxCell>
        <mxCell id="kp1QoJHbh3KsYP77GQn0-5" value="1" style="text;html=1;align=center;verticalAlign=middle;resizable=0;points=[];autosize=1;strokeColor=none;fillColor=none;" vertex="1" parent="1">
          <mxGeometry x="235" y="488" width="30" height="30" as="geometry" />
        </mxCell>
        <mxCell id="kp1QoJHbh3KsYP77GQn0-6" value="" style="endArrow=none;html=1;rounded=0;entryX=0.103;entryY=0.998;entryDx=0;entryDy=0;entryPerimeter=0;exitX=0.358;exitY=0.972;exitDx=0;exitDy=0;exitPerimeter=0;" edge="1" parent="1" source="kp1QoJHbh3KsYP77GQn0-2" target="9foeUpmNPGsQy17WNi8c-14">
          <mxGeometry width="50" height="50" relative="1" as="geometry">
            <mxPoint x="80" y="640" as="sourcePoint" />
            <mxPoint x="540" y="660" as="targetPoint" />
            <Array as="points">
              <mxPoint x="80" y="680" />
              <mxPoint x="616" y="680" />
              <mxPoint x="616" y="640" />
            </Array>
          </mxGeometry>
        </mxCell>
        <mxCell id="kp1QoJHbh3KsYP77GQn0-7" value="N" style="text;html=1;align=center;verticalAlign=middle;resizable=0;points=[];autosize=1;strokeColor=none;fillColor=none;" vertex="1" parent="1">
          <mxGeometry x="75" y="548" width="30" height="30" as="geometry" />
        </mxCell>
        <mxCell id="kp1QoJHbh3KsYP77GQn0-8" value="N" style="text;html=1;align=center;verticalAlign=middle;resizable=0;points=[];autosize=1;strokeColor=none;fillColor=none;" vertex="1" parent="1">
          <mxGeometry x="615" y="568" width="30" height="30" as="geometry" />
        </mxCell>
      </root>
    </mxGraphModel>
  </diagram>
</mxfile>
